# xmcd
#
# Track frame offsets:
#	150
#	14148
#	17416
#	24554
#	48222
#	83880
#	96815
#	115755
#	178550
#	230539
#	264580
#
# Disc length: 3558 seconds
#
# Revision: 1
# Processed by: cddbd v1.5PL3 Copyright (c) Steve Scherf et al.
# Submitted via: audiograbber 1.82.01
#
DISCID=810de40b
DTITLE=Jimi Hendrix - 1969-01-09 -  Stockholm, Sweden - Disc 1
DYEAR=1900
DGENRE=
TTITLE0=Jimi Hendrix - Audience
TTITLE1=Jimi Hendrix - MC Intro
TTITLE2=Jimi Hendrix - Jimi Intro
TTITLE3=Jimi Hendrix - Killin' Floor
TTITLE4=Jimi Hendrix - Spanish Castle Magic
TTITLE5=Jimi Hendrix - Fire
TTITLE6=Jimi Hendrix - Hey Joe
TTITLE7=Jimi Hendrix - Voodoo Chile (slight return)
TTITLE8=Jimi Hendrix - Red House
TTITLE9=Jimi Hendrix - Sunshine Of Your Love
TTITLE10=Jimi Hendrix - MC Outro
EXTD=
EXTT0=
EXTT1=
EXTT2=
EXTT3=
EXTT4=
EXTT5=
EXTT6=
EXTT7=
EXTT8=
EXTT9=
EXTT10=
PLAYORDER=
